<?xml version="1.0" standalone="no"?>
<!DOCTYPE svg PUBLIC "-//W3C//DTD SVG 1.1//EN" "http://www.w3.org/Graphics/SVG/1.1/DTD/svg11.dtd">
<svg class="icon" width="20" height="20" viewBox="0 0 1024 1024" fill='#959494' stroke='#959494' stroke-width='17' version="1.1"
  xmlns="http://www.w3.org/2000/svg">
  <path d="M797.568 64a128 128 0 0 1 128 128v640a128 128 0 0 1-128 128H226.432a128 128 0 0 1-128-128V192a128 128 0 0 1 128-128h571.136z m64 251.392H162.368V832a64 64 0 0 0 64 64h571.136a64 64 0 0 0 64-64V315.392zM388.736 468.032a32 32 0 0 1 2.176 45.184L308.8 603.52l81.408 83.456a32 32 0 0 1 3.2 40.832l-3.776 4.416a32 32 0 0 1-45.248-0.576l-102.4-104.96a32 32 0 0 1-0.768-43.84l102.4-112.64a32 32 0 0 1 45.184-2.176z m255.744 0a32 32 0 0 1 45.184 2.176l102.4 112.64a32 32 0 0 1-0.768 43.904l-102.4 104.96a32 32 0 0 1-45.248 0.512l-3.84-4.416a32 32 0 0 1 3.264-40.832l81.408-83.456-82.176-90.24a32 32 0 0 1 2.176-45.248zM576 579.136a32 32 0 1 1 0 64H448a32 32 0 1 1 0-64h128zM797.568 128H226.432a64 64 0 0 0-64 64v59.392h699.072V192a64 64 0 0 0-64-64z" />
</svg>
